<?xml version="1.0" encoding="utf-8"?>
<!-- Generator: Adobe Illustrator 25.2.0, SVG Export Plug-In . SVG Version: 6.00 Build 0)  -->
<svg version="1.1" id="afa47758-a2a2-4060-8a7f-b95b545d0d64"
	 xmlns="http://www.w3.org/2000/svg" xmlns:xlink="http://www.w3.org/1999/xlink" x="0px" y="0px" viewBox="0 0 280.5 48.9"
	 style="enable-background:new 0 0 280.5 48.9;" xml:space="preserve">
<style type="text/css">
	.st0{fill:#FFFFFF;}
	.st1{fill:#5215FC;}
</style>
<polygon class="st0" points="106.5,1.3 121.4,48.3 108.2,48.3 93.3,1.3 "/>
<path class="st0" d="M206.5,34.8c-1.8,2.4-4.8,3.5-8.6,3.5H195v-27h3.8c3.5,0,6.2,1,7.9,3.2s2.7,5.4,2.7,9.7S208.3,32.6,206.5,34.8
	 M215.8,7.1c-4.1-3.9-10-5.8-17.5-5.8H182v47h15.2c7.9,0,13.9-2.1,18.2-6.4s6.4-10.3,6.4-18.1S220,10.9,215.8,7.1 M173,1.3h-11v21.5
	c0,2.9,0.2,6.7,0.5,11.5h-0.2l-17.4-33H128v47h11V27.2c0-2.8-0.2-6.7-0.6-11.9h0.3l16.8,33H173V1.3z M62,11.3h11v-10H37v10h12v37h13
	V11.3z M31,25.9c-1.6-2.1-4.4-4.1-8.5-5.9c-2.7-1.1-5.3-2.4-7.8-4c-0.9-0.5-1.4-1.5-1.4-2.5c0-0.9,0.4-1.7,1.1-2.2
	c1.1-0.7,2.3-1,3.6-0.9c3.2,0,7,1,11.5,3l3.9-9.9c-4.7-2.2-9.8-3.4-15-3.4c-5.5,0-9.9,1.2-13.1,3.7C2.1,6.2,0.4,10,0.5,14
	c0,2.1,0.4,4.2,1.1,6.1c0.8,1.7,1.9,3.3,3.4,4.5c2.1,1.7,4.4,3,6.9,4.1c2.1,0.9,4.3,1.9,6.3,3c0.7,0.4,1.3,0.9,1.7,1.5
	c0.4,0.5,0.5,1.1,0.5,1.7c0,1-0.5,1.9-1.3,2.5c-1.3,0.8-2.7,1.1-4.2,1c-2.5-0.1-4.9-0.4-7.3-1.1C5,36.6,2.4,35.6,0,34.4v11.4
	c2.1,1.1,4.4,1.8,6.7,2.3c2.6,0.5,5.3,0.7,7.9,0.7c3.4,0.1,6.8-0.6,9.9-1.9c2.6-1.1,4.8-2.9,6.4-5.3c1.5-2.3,2.3-5,2.2-7.8
	C33.4,31,32.6,28.2,31,25.9"/>
<polygon class="st1" points="88.7,1.3 73.8,48.3 87,48.3 101.9,1.3 "/>
<path class="st1" d="M260.1,39.5c-1.8,0.1-3.7-0.4-5.1-1.6c-1.3-1-2-2.6-1.9-4.3c-0.1-1.7,0.6-3.2,1.9-4.3c1.5-1.1,3.3-1.7,5.1-1.6
	c1.8-0.1,3.7,0.4,5.1,1.6c2.4,2.1,2.6,5.8,0.4,8.2c-0.1,0.1-0.3,0.3-0.4,0.4C263.8,39.1,261.9,39.6,260.1,39.5 M260.1,9.4
	c1.5-0.1,2.9,0.4,4.1,1.3c1,0.9,1.6,2.3,1.5,3.7c0.1,1.4-0.5,2.7-1.5,3.6c-2.5,1.7-5.7,1.7-8.2,0c-1-0.9-1.6-2.2-1.5-3.6
	c-0.1-1.4,0.5-2.8,1.5-3.7C257.2,9.8,258.6,9.3,260.1,9.4 M273.8,23.2c1.5-1.1,2.8-2.5,3.7-4.1c0.9-1.7,1.3-3.5,1.3-5.4
	c0-2.6-0.8-5.1-2.3-7.2c-1.7-2.2-4-3.8-6.6-4.8c-3.1-1.2-6.5-1.7-9.8-1.7c-3.3,0-6.7,0.5-9.8,1.7c-2.6,1-4.9,2.6-6.6,4.8
	c-1.6,2.1-2.4,4.6-2.3,7.2c0,1.9,0.4,3.7,1.3,5.4c0.9,1.6,2.2,3,3.7,4.1c-2,1.2-3.7,2.7-5,4.6c-1.2,1.9-1.8,4.1-1.7,6.3
	c-0.1,2.8,0.8,5.5,2.5,7.8c1.9,2.4,4.4,4.2,7.2,5.2c3.4,1.3,7.1,1.9,10.7,1.8c3.6,0.1,7.3-0.5,10.7-1.8c2.9-1,5.4-2.8,7.2-5.2
	c1.7-2.2,2.6-5,2.5-7.8c0-2.2-0.6-4.4-1.7-6.3C277.5,25.9,275.8,24.3,273.8,23.2"/>
</svg>
