<svg xmlns="http://www.w3.org/2000/svg" xmlns:xlink="http://www.w3.org/1999/xlink" viewBox="0 0 24 24" fill="#FFFFFF">
  <path d="M4 2L4 22L20 22L20 2L19 2L4 2 z M 7 5L10.294922 5L10.648438 7.9179688L9.5878906 8.75C10.035891 9.601 10.558672 10.282375 11.138672 10.859375C11.715672 11.440375 12.397047 11.962156 13.248047 12.410156L14.082031 11.306641L17 11.662109L17 15L16.443359 15C13.921359 15 11.513812 13.977234 9.7578125 12.240234C8.0218125 10.485234 7 8.0776406 7 5.5566406L7 5 z M 6 18L8 18L8 20L6 20L6 18 z M 10 18L18 18L18 20L10 20L10 18 z" fill="#FFFFFF" />
</svg>